<svg xmlns="http://www.w3.org/2000/svg" viewBox="0 0 1921 401"><defs><style>.cls-1{fill:#fff;stroke:#000;stroke-miterlimit:10;}</style></defs><title>MAKELOOP</title><g id="livello1"><rect class="cls-1" x="0.5" y="0.5" width="1920" height="400"/></g><g id="livello"><path d="M1435.58,231c-10.17,10.78-17.44,19.94-26.17,27.41-16.73,14.29-33.23,29.29-51.73,41-34.38,21.74-72.13,28.52-111.67,15.87-42.2-13.5-67.24-43.32-76.2-86.11-14.33-68.53,22.94-128.82,90.76-146.38,38.38-9.94,74.21-.87,105.39,22.38,21.54,16.06,40.7,35.33,60.81,53.29,2.54,2.28,4.41,5.32,8.31,10.11,7.91-8.75,14.15-16.32,21.07-23.21,25.71-25.58,53.66-47.87,88.52-60.13,49.52-17.41,109.12-.61,136,40.87,52.27,80.52,8,177.13-78.75,193.1-33.77,6.22-65.94-.72-93.44-21-22.55-16.64-42.87-36.34-64-54.92C1441.4,240.44,1439.41,236.3,1435.58,231Zm-33.1-31.09c-16-15-30.41-29.91-46.37-42.85-11.35-9.2-24.13-17.44-37.54-23.14-31.71-13.5-65.36-3.91-85.88,22.56-19.23,24.81-19.34,62.07-.26,88.73,18.48,25.83,55.47,34,88.94,19.72C1354.11,251,1377.41,225.39,1402.48,199.91Zm65.73-.7c8.5,8.9,16,17.29,24.11,25.14,18.56,18.08,37.84,35.14,63,43.77a72.4,72.4,0,0,0,85.14-29.89c17.35-27.67,13.28-67.2-9.3-90.22-20.83-21.23-53.19-25.86-83.94-12.34C1515.26,149.74,1492.4,175,1468.21,199.21Z" transform="translate(0 1)"/><path d="M133.52,242.41q9.36-22.68,18.71-45.35c15.26-37.17,30.67-74.27,45.55-111.58,2.49-6.25,5.69-8,12-7.86,18,.4,35.93.14,54.59.14V322.39H214.94V164.82l-2.17-.62c-1.26,2.8-2.62,5.56-3.76,8.4-18.83,46.88-37.74,93.73-56.3,140.72-2.33,5.89-4.93,8.43-11.68,8.37-26-.24-26,0-35.67-24.15Q80.49,235.22,55.63,172.88c-1.18-2.94-2.42-5.85-5.68-8.35V322.34H0V77.8c20.16,0,40.18-.24,60.17.35,2.17.06,4.94,4.62,6.18,7.61q30.38,73.38,60.4,146.93c1.35,3.28,2.83,6.5,4.25,9.75Z" transform="translate(0 1)"/><path d="M639.68,221.92c-8.15,10-15.78,18.67-22.62,28-2.1,2.84-2.77,7.28-2.82,11-.26,20.11-.12,40.22-.12,61H563V78.1h51V184.67l2.21,1.09c2.1-2.12,4.38-4.09,6.26-6.39q39.12-47.76,78-95.68c3.59-4.46,7.12-6.46,13-6.32,17.31.41,34.63.15,53.88.15-3.32,4.24-5.57,7.27-8,10.18-25.66,31-51.22,62.08-77.16,92.84-4.26,5.06-4.56,8.38-.75,13.91,27.16,39.38,53.94,79,80.83,118.59,1.82,2.69,3.5,5.48,6.09,9.54-20.43,0-39.5.23-58.55-.27-2.42-.06-5.33-3.47-7-6C681.83,285.23,661.09,254,639.68,221.92Z" transform="translate(0 1)"/><path d="M297.09,322.53c28.46-82.42,56.43-163.48,84.6-245.07,20.93,0,41.63-.25,62.31.34,2.41.06,5.8,4.4,6.85,7.42q31.27,89.64,62.06,179.45c6.53,18.94,13.07,37.87,20,57.86-17.68,0-34.36.22-51-.27-2.18-.06-5.34-3.36-6.21-5.82-5.07-14.34-9.77-28.82-14.21-43.37-1.48-4.89-3.81-6.66-9-6.6q-37.5.4-75,0c-5.37-.07-7.47,2.08-8.92,6.78-4.49,14.54-9.08,29.05-14.23,43.36-.91,2.51-4.66,5.59-7.19,5.67C331,322.79,314.83,322.53,297.09,322.53Zm119-188.6-2.12.12L384.25,225.4h61.63C435.75,194.27,425.92,164.1,416.1,133.93Z" transform="translate(0 1)"/><path d="M847.12,221.09V279.8H959.74v42H795.21V78.19h164V120.1H847.06v58.28H950.93v42.71Z" transform="translate(0 1)"/><path d="M1787.49,243.63v79h-51.28V78.11c2.48-.18,5.09-.52,7.7-.52,29.62,0,59.25-.52,88.84.24,11.75.3,24,1.79,35,5.52,31.09,10.48,48.53,33.21,51.63,65.67,5.25,54.86-24.27,89.63-79.18,93.92-14,1.1-28.06.52-42.1.69C1794.86,243.66,1791.6,243.63,1787.49,243.63Zm.7-124.41v83.57c16.89-.84,33.17-.42,49-2.76,18.81-2.78,29.49-18.46,29.42-39.45-.06-20.52-10.71-36-29.19-38.64C1821.34,119.63,1804.83,120,1788.19,119.22Z" transform="translate(0 1)"/><path d="M1157.22,322.09H1001.78V77.91h50.75V279.59h104.69Z" transform="translate(0 1)"/></g></svg>