<svg id="livello" xmlns="http://www.w3.org/2000/svg" viewBox="0 0 1918.44 145.34"><title>MAKELOOP STUDIO - Extended</title><path d="M840.42,220.33c-6,6.31-10.22,11.68-15.33,16-9.79,8.37-19.45,17.14-30.28,24-20.13,12.73-42.23,16.69-65.37,9.29-24.71-7.9-39.37-25.36-44.61-50.41-8.39-40.12,13.43-75.41,53.13-85.69,22.47-5.82,43.44-.51,61.69,13.1,12.62,9.4,23.83,20.68,35.6,31.2,1.49,1.33,2.59,3.11,4.87,5.92,4.63-5.13,8.28-9.56,12.34-13.59,15-15,31.41-28,51.82-35.2,29-10.2,63.88-.36,79.64,23.92,30.6,47.14,4.72,103.69-46.1,113-19.77,3.64-38.6-.43-54.7-12.31-13.2-9.74-25.1-21.27-37.45-32.15C843.82,225.86,842.65,223.44,840.42,220.33ZM821,202.13c-9.4-8.78-17.81-17.51-27.15-25.08a94,94,0,0,0-22-13.55c-18.57-7.9-38.27-2.29-50.28,13.21-11.26,14.53-11.33,36.33-.16,51.94,10.83,15.12,32.48,19.91,52.07,11.55C792.72,232,806.36,217.05,821,202.13Zm38.48-.41c5,5.21,9.39,10.12,14.11,14.72C884.5,227,895.78,237,910.54,242.06a42.39,42.39,0,0,0,49.84-17.49c10.16-16.2,7.77-39.34-5.45-52.82-12.19-12.43-31.13-15.14-49.13-7.22C887.06,172.76,873.68,187.54,859.52,201.72Z" transform="translate(0 -128.25)"/><path d="M78.16,226.46q5.49-13.28,11-26.55c8.93-21.76,17.95-43.48,26.66-65.32,1.46-3.66,3.33-4.69,7-4.6,10.52.23,21,.08,32,.08V273.28h-29V181l-1.27-.37c-.74,1.64-1.54,3.25-2.2,4.92-11,27.44-22.1,54.87-33,82.38-1.36,3.45-2.89,4.94-6.84,4.9-15.22-.14-15.23,0-20.88-14.14q-14.57-36.48-29.12-73a10.24,10.24,0,0,0-3.32-4.89v92.39H0V130.09c11.8,0,23.52-.14,35.23.21,1.27,0,2.89,2.7,3.61,4.45q17.79,43,35.36,86c.79,1.92,1.66,3.8,2.49,5.7Z" transform="translate(0 -128.25)"/><path d="M374.48,214.61c-4.77,5.82-9.24,10.92-13.24,16.36-1.23,1.67-1.62,4.27-1.65,6.45-.15,11.77-.07,23.54-.07,35.72H329.6V130.41h29.83v62.38l1.29.65c1.23-1.25,2.57-2.4,3.67-3.74,15.26-18.64,30.55-37.27,45.67-56,2.1-2.61,4.17-3.78,7.59-3.7,10.13.24,20.27.09,31.54.09-1.94,2.48-3.26,4.26-4.67,6-15,18.14-30,36.34-45.17,54.35-2.5,3-2.67,4.9-.44,8.14,15.9,23,31.58,46.26,47.32,69.43,1.07,1.57,2,3.2,3.56,5.58-12,0-23.12.13-34.27-.16-1.42,0-3.12-2-4.12-3.51C399.16,251.67,387,233.4,374.48,214.61Z" transform="translate(0 -128.25)"/><path d="M173.92,273.55l49.53-143.48c12.25,0,24.37-.14,36.48.2,1.41,0,3.39,2.58,4,4.35q18.31,52.47,36.33,105L312,273.54c-10.35,0-20.11.13-29.86-.15-1.28,0-3.13-2-3.64-3.41q-4.44-12.59-8.31-25.39c-.87-2.86-2.24-3.9-5.29-3.86q-21.95.22-43.9,0c-3.15,0-4.38,1.22-5.23,4-2.63,8.51-5.31,17-8.33,25.38-.53,1.48-2.73,3.28-4.21,3.32C193.76,273.7,184.31,273.55,173.92,273.55Zm69.67-110.42-1.24.07L225,216.68H261C255.09,198.46,249.34,180.8,243.59,163.13Z" transform="translate(0 -128.25)"/><path d="M495.92,214.2v34.36h65.93v24.6H465.53V130.54h96v24.53H495.88v34.12h60.81v25Z" transform="translate(0 -128.25)"/><path d="M1046.43,227v46.22h-30V130.13c1.45-.11,3-.31,4.5-.31,17.34,0,34.69-.3,52,.14a70.45,70.45,0,0,1,20.5,3.24c18.2,6.13,28.41,19.44,30.23,38.44,3.07,32.12-14.21,52.47-46.35,55-8.18.64-16.43.3-24.65.4C1050.74,227.05,1048.83,227,1046.43,227Zm.4-72.84v48.93c9.89-.49,19.42-.25,28.71-1.62,11-1.62,17.27-10.81,17.23-23.09,0-12-6.27-21.08-17.09-22.62C1066.24,154.44,1056.58,154.67,1046.83,154.19Z" transform="translate(0 -128.25)"/><path d="M1610.91,270.22V129.55c20.06.6,39.92-.29,59.36,2.17,24.44,3.1,40.09,18.4,47,42.11a94.34,94.34,0,0,1,.28,51.73c-7.19,26.51-25.75,42.05-55,44.41C1645.53,271.34,1628.34,270.22,1610.91,270.22Zm17-15.66c12.75,0,25.06,1.17,37.07-.26,19.29-2.3,31.31-14.18,36.49-32.82a78.12,78.12,0,0,0-.18-43.43c-4.49-15.46-13.8-27.41-30-30.37-14.06-2.56-28.64-2.25-43.35-3.24Z" transform="translate(0 -128.25)"/><path d="M1917.18,201.27c.16,12.92-1.75,25.47-7.49,37.16-10.8,22-28.5,33.79-53,34s-43-10.93-53.48-33.12c-11.62-24.67-11.57-50.21-.48-75.1,10.16-22.8,31.93-35.49,56-34.07,26,1.52,45.73,16.18,53.79,41.21,3.08,9.55,4,19.79,5.94,29.72Zm-106.85-2.22c1.24,8.85,1.67,15.6,3.18,22.1,4.94,21.22,20.39,34.5,40.84,35.63,18.86,1,35.59-10.12,42.39-29.3,6.36-18,6.35-36.32-.68-54.15s-21.8-27.5-40-27.49-33.09,9.74-39.77,27.61C1813.06,182.17,1812,191.71,1810.33,199.05Z" transform="translate(0 -128.25)"/><path d="M677.46,273.36h-91v-143h29.71V248.48h61.29Z" transform="translate(0 -128.25)"/><path d="M1215,234.52h16.93c1.69,11.52,8.79,18.31,19.59,21.22,13.18,3.55,26.13,2.94,37.69-5.05,15-10.4,13.37-29.46-3.4-36.54-9.6-4.06-20-6.21-29.79-9.8-7.81-2.86-15.77-5.84-22.85-10.11-20-12.05-17.24-38-6.41-49.84,11.37-12.48,25.94-16.52,42.11-16.13,11.8.29,22.79,3.51,32,11.24,7.8,6.54,12.55,14.69,12.77,25.52h-15.59c-8.57-19.9-29.23-27.61-49.18-18.37-10.75,5-16,14.73-13.31,25,1.92,7.35,7.6,11.3,14,13.78,7.78,3,16,4.84,23.89,7.62,8.52,3,17.37,5.61,25.18,10,23.68,13.27,20.46,43.68,5,57.25a48.26,48.26,0,0,1-25.86,11.7c-13.87,1.88-27.56,1.58-40.52-4.59C1223.82,261,1215.32,248.54,1215,234.52Z" transform="translate(0 -128.25)"/><path d="M1468.12,130.36h16.49v6.29q0,42,0,83.91,0,26.08,22.54,34c16.28,5.79,35.53,1.38,45.34-10.29,5.22-6.19,7.28-13.38,7.27-21.33q0-43.26,0-86.53v-6h16.69c.09,1.93.24,3.63.24,5.33,0,28.49-.5,57,.14,85.48.75,33.45-25.21,50.11-49.45,51.52-14.75.86-28.55-1.82-40.69-10.68s-18.74-21.28-18.92-36.28c-.37-31.28-.12-62.58-.11-93.87A8.41,8.41,0,0,1,1468.12,130.36Z" transform="translate(0 -128.25)"/><path d="M1440.91,145.3h-43.59V270.17h-17V145.48h-44v-15h104.55Z" transform="translate(0 -128.25)"/><path d="M1749.77,130.27h16.12v139.9h-16.12Z" transform="translate(0 -128.25)"/></svg>