<svg xmlns="http://www.w3.org/2000/svg" viewBox="0 0 1922 401"><defs><style>.cls-1{fill:#fff;stroke:#000;stroke-miterlimit:10;}</style></defs><title>STUDIO</title><g id="livello1"><rect class="cls-1" x="0.5" y="0.5" width="1921" height="400"/></g><g id="livello"><path d="M1366.09,326.3V72.92C1402.22,74,1438,72.4,1473,76.84c44,5.57,72.21,33.15,84.57,75.84,8.94,30.89,8.9,62.23.5,93.18-13,47.74-46.38,75.74-99,80C1428.45,328.32,1397.48,326.3,1366.09,326.3Zm30.72-28.2c23,0,45.14,2.1,66.77-.48,34.75-4.14,56.39-25.54,65.72-59.12a140.76,140.76,0,0,0-.32-78.22c-8.1-27.84-24.86-49.36-54.1-54.7-25.32-4.61-51.58-4-78.07-5.83Z" transform="translate(1 1)"/><path d="M1917.74,200.12c.29,23.28-3.15,45.88-13.49,66.93-19.45,39.61-51.34,60.87-95.54,61.19s-77.51-19.69-96.34-59.65c-20.94-44.45-20.84-90.44-.87-135.27,18.3-41.08,57.52-63.92,100.92-61.38,46.79,2.75,82.37,29.15,96.89,74.23,5.55,17.2,7.24,35.65,10.69,53.53Zm-192.45-4c2.23,15.94,3,28.1,5.73,39.8,8.88,38.21,36.73,62.14,73.55,64.17,34,1.88,64.11-18.22,76.34-52.78,11.47-32.39,11.45-65.41-1.21-97.53-12.55-31.83-39.26-49.52-72-49.51s-59.6,17.55-71.64,49.73C1730.2,165.72,1728.26,182.91,1725.29,196.13Z" transform="translate(1 1)"/><path d="M653,261.05h30.49c3,20.74,15.84,33,35.29,38.22,23.74,6.39,47.06,5.31,67.88-9.09,27.09-18.73,24.09-53.06-6.13-65.82-17.28-7.3-36-11.19-53.65-17.66-14.07-5.15-28.4-10.5-41.15-18.19-36-21.71-31.06-68.35-11.55-89.78C694.65,76.25,720.91,69,750,69.69c21.26.51,41,6.3,57.66,20.23,14,11.78,22.6,26.47,23,46H802.6C787.17,100,750,86.16,714,102.8c-19.36,9-28.79,26.53-24,45,3.46,13.23,13.68,20.36,25.28,24.83,14,5.4,28.85,8.71,43,13.72,15.35,5.41,31.29,10.11,45.35,18,42.65,23.9,36.84,78.68,9,103.12a87,87,0,0,1-46.58,21.08c-25,3.39-49.65,2.84-73-8.27C668.88,308.71,653.58,286.3,653,261.05Z" transform="translate(1 1)"/><path d="M1108.91,71.61h29.7V83q0,75.57,0,151.13c0,31.32,13.61,51.69,40.59,61.28,29.32,10.43,64,2.48,81.68-18.54,9.39-11.15,13.1-24.09,13.1-38.42q-.06-77.93,0-155.86V71.76h30.07c.16,3.47.42,6.53.42,9.59,0,51.33-.9,102.67.26,154,1.35,60.24-45.42,90.26-89.07,92.8-26.58,1.55-51.43-3.28-73.29-19.24-22.08-16.11-33.76-38.33-34.08-65.34-.66-56.35-.21-112.72-.19-169.07A15.48,15.48,0,0,1,1108.91,71.61Z" transform="translate(1 1)"/><path d="M1059.9,100.91H981.39V325.82H950.81V101.23H871.6v-27h188.3Z" transform="translate(1 1)"/><path d="M1616.21,74h29V326h-29Z" transform="translate(1 1)"/></g></svg>